<svg xmlns="http://www.w3.org/2000/svg" x="0px" y="0px" viewBox="0 0 100 100">
    <g fill="none" fill-rule="evenodd" stroke-linecap="round" stroke-linejoin="round">
        <path stroke="#A2A3A3" stroke-width="2" d="M91.092 15.503c-7.717-.176-24.694 8.31-30.974 11.602-6.903-1.524-14.431-1.46-21.283.189C32.872 24.154 15.37 15.323 7.5 15.503c0 0 5.175 18.257 7.875 30.44-6.538 13.234-4.013 18.47 7.573 29.86l9.814 7.365c9.419 9.258 24.83 9.258 34.25 0l9.813-7.364c12.05-11.845 14.299-17.882 6.747-31.434 2.773-12.12 7.52-28.867 7.52-28.867z"/>
        <path id="pet-loading" stroke="#926C2D" stroke-width="5" d="M91.092 15.503c-7.717-.176-24.694 8.31-30.974 11.602-6.903-1.524-14.431-1.46-21.283.189C32.872 24.154 15.37 15.323 7.5 15.503c0 0 5.175 18.257 7.875 30.44-6.538 13.234-4.013 18.47 7.573 29.86l9.814 7.365c9.419 9.258 24.83 9.258 34.25 0l9.813-7.364c12.05-11.845 14.299-17.882 6.747-31.434 2.773-12.12 7.52-28.867 7.52-28.867z"/>
    </g>
</svg>